<svg viewBox="0 0 123 24" xmlns="http://www.w3.org/2000/svg" xmlns:xlink="http://www.w3.org/1999/xlink" width="123.000000" height="24.000000" fill="none" customFrame="#000000">
	<g id="Group 87">
		<path id="Book an Appointment" d="M10.656 17.6L8.416 17.6L3.344 9.936L3.344 17.6L1.104 17.6L1.104 6.416L3.344 6.416L8.416 14.096L8.416 6.416L10.656 6.416L10.656 17.6ZM24.1096 12.976C24.1096 13.296 24.0883 13.584 24.0456 13.84L17.5656 13.84C17.619 14.48 17.843 14.9813 18.2376 15.344C18.6323 15.7067 19.1176 15.888 19.6936 15.888C20.5256 15.888 21.1176 15.5307 21.4696 14.816L23.8856 14.816C23.6296 15.6693 23.139 16.3733 22.4136 16.928C21.6883 17.472 20.7976 17.744 19.7416 17.744C18.8883 17.744 18.1203 17.5573 17.4376 17.184C16.7656 16.8 16.2376 16.2613 15.8536 15.568C15.4803 14.8747 15.2936 14.0747 15.2936 13.168C15.2936 12.2507 15.4803 11.4453 15.8536 10.752C16.227 10.0587 16.7496 9.52533 17.4216 9.152C18.0936 8.77867 18.867 8.592 19.7416 8.592C20.5843 8.592 21.3363 8.77333 21.9976 9.136C22.6696 9.49867 23.187 10.016 23.5496 10.688C23.923 11.3493 24.1096 12.112 24.1096 12.976ZM21.7896 12.336C21.779 11.76 21.571 11.3013 21.1656 10.96C20.7603 10.608 20.2643 10.432 19.6776 10.432C19.123 10.432 18.6536 10.6027 18.2696 10.944C17.8963 11.2747 17.667 11.7387 17.5816 12.336L21.7896 12.336ZM41.0326 8.736L38.4406 17.6L36.0246 17.6L34.4086 11.408L32.7926 17.6L30.3606 17.6L27.7526 8.736L30.0246 8.736L31.5926 15.488L33.2886 8.736L35.6566 8.736L37.3206 15.472L38.8886 8.736L41.0326 8.736ZM58.9051 15.472L54.4571 15.472L53.7211 17.6L51.3691 17.6L55.3851 6.416L57.9931 6.416L62.0091 17.6L59.6411 17.6L58.9051 15.472ZM58.2971 13.68L56.6811 9.008L55.0651 13.68L58.2971 13.68ZM68.7503 10.112C69.0383 9.64267 69.4116 9.27467 69.8702 9.008C70.3396 8.74133 70.8729 8.608 71.4703 8.608L71.4703 10.96L70.8783 10.96C70.1742 10.96 69.6409 11.1253 69.2783 11.456C68.9262 11.7867 68.7503 12.3627 68.7503 13.184L68.7503 17.6L66.5103 17.6L66.5103 8.736L68.7503 8.736L68.7503 10.112ZM78.219 10.112C78.507 9.64267 78.8803 9.27467 79.339 9.008C79.8083 8.74133 80.3417 8.608 80.939 8.608L80.939 10.96L80.347 10.96C79.643 10.96 79.1097 11.1253 78.747 11.456C78.395 11.7867 78.219 12.3627 78.219 13.184L78.219 17.6L75.979 17.6L75.979 8.736L78.219 8.736L78.219 10.112ZM86.5837 7.68C86.1891 7.68 85.8584 7.55733 85.5918 7.312C85.3357 7.056 85.2077 6.74133 85.2077 6.368C85.2077 5.99467 85.3357 5.68533 85.5918 5.44C85.8584 5.184 86.1891 5.056 86.5837 5.056C86.9784 5.056 87.3037 5.184 87.5598 5.44C87.8264 5.68533 87.9597 5.99467 87.9597 6.368C87.9597 6.74133 87.8264 7.056 87.5598 7.312C87.3037 7.55733 86.9784 7.68 86.5837 7.68ZM87.6878 8.736L87.6878 17.6L85.4478 17.6L85.4478 8.736L87.6878 8.736ZM96.5969 15.536L98.8369 8.736L101.221 8.736L97.9409 17.6L95.2209 17.6L91.9569 8.736L94.3569 8.736L96.5969 15.536ZM104.903 13.136C104.903 12.24 105.079 11.4453 105.431 10.752C105.794 10.0587 106.279 9.52533 106.887 9.152C107.506 8.77867 108.194 8.592 108.951 8.592C109.612 8.592 110.188 8.72533 110.679 8.992C111.18 9.25867 111.58 9.59467 111.879 10L111.879 8.736L114.135 8.736L114.135 17.6L111.879 17.6L111.879 16.304C111.591 16.72 111.191 17.0667 110.679 17.344C110.178 17.6107 109.596 17.744 108.935 17.744C108.188 17.744 107.506 17.552 106.887 17.168C106.279 16.784 105.794 16.2453 105.431 15.552C105.079 14.848 104.903 14.0427 104.903 13.136ZM111.879 13.168C111.879 12.624 111.772 12.16 111.559 11.776C111.346 11.3813 111.058 11.0827 110.695 10.88C110.332 10.6667 109.943 10.56 109.527 10.56C109.111 10.56 108.727 10.6613 108.375 10.864C108.023 11.0667 107.735 11.3653 107.511 11.76C107.298 12.144 107.191 12.6027 107.191 13.136C107.191 13.6693 107.298 14.1387 107.511 14.544C107.735 14.9387 108.023 15.2427 108.375 15.456C108.738 15.6693 109.122 15.776 109.527 15.776C109.943 15.776 110.332 15.6747 110.695 15.472C111.058 15.2587 111.346 14.96 111.559 14.576C111.772 14.1813 111.879 13.712 111.879 13.168ZM121.563 5.76L121.563 17.6L119.323 17.6L119.323 5.76L121.563 5.76Z" fill="rgb(51,51,51)" fill-rule="nonzero" />
	</g>
</svg>
